<svg width="62" height="56" viewBox="0 0 62 56" fill="none" xmlns="http://www.w3.org/2000/svg">
<path d="M49.3333 37H43.1667V43.1667H49.3333M49.3333 24.6667H43.1667V30.8333H49.3333M55.5 49.3333H30.8333V43.1667H37V37H30.8333V30.8333H37V24.6667H30.8333V18.5H55.5M24.6667 12.3333H18.5V6.16667H24.6667M24.6667 24.6667H18.5V18.5H24.6667M24.6667 37H18.5V30.8333H24.6667M24.6667 49.3333H18.5V43.1667H24.6667M12.3333 12.3333H6.16667V6.16667H12.3333M12.3333 24.6667H6.16667V18.5H12.3333M12.3333 37H6.16667V30.8333H12.3333M12.3333 49.3333H6.16667V43.1667H12.3333M30.8333 12.3333V0H0V55.5H61.6667V12.3333H30.8333Z" fill="white"/>
</svg>
