<svg width="61" height="61" viewBox="0 0 61 61" fill="none" xmlns="http://www.w3.org/2000/svg">
<path d="M3.8125 57.1875H30.5894L34.4019 61H0V0H33.2104L49.5625 16.3521V22.875H45.75V19.0625H30.5V3.8125H3.8125V57.1875ZM34.3125 6.52295V15.25H43.0396L34.3125 6.52295ZM7.625 15.25H26.6577V19.0327H7.625V15.25ZM41.9077 22.875V26.6577H7.625V22.875H41.9077ZM7.625 30.5H30.4702V34.2827H7.625V30.5ZM30.5 38.125V41.9077H7.625V38.125H30.5ZM7.625 49.5327V45.75H30.5L26.6875 49.5327H7.625ZM43.7544 44.7075L38.8994 49.5327H57.1875V53.375H38.8994L43.7544 58.23L41.0737 60.9106L31.6021 51.4688L41.0737 42.0269L43.7544 44.7075ZM52.6006 34.3125L47.7456 29.4575L50.4263 26.7769L59.8979 36.2188L50.4263 45.6606L47.7456 42.98L52.6006 38.125H34.3125V34.3125H52.6006Z" fill="white"/>
</svg>
