<svg width="62" height="62" viewBox="0 0 62 62" fill="none" xmlns="http://www.w3.org/2000/svg">
<path d="M49.117 26.2208C48.9556 26.3866 48.8371 26.5892 48.7718 26.8112C48.7065 27.0332 48.6964 27.2677 48.7424 27.4944C48.9697 28.6311 49.0834 29.7996 49.0834 31C49.0831 34.6456 47.981 38.2061 45.9215 41.2143C43.862 44.2225 40.9414 46.5379 37.5427 47.8569C34.1441 49.1759 30.4261 49.4369 26.8765 48.6056C23.3269 47.7743 20.1115 45.8895 17.652 43.1985C17.53 43.0618 17.3818 42.9509 17.2162 42.8724C17.0506 42.794 16.8709 42.7496 16.6878 42.7419C16.5047 42.7342 16.3219 42.7633 16.1503 42.8276C15.9787 42.8918 15.8217 42.9898 15.6886 43.1158C15.4626 43.3348 15.3293 43.6322 15.3163 43.9467C15.3033 44.2611 15.4116 44.5685 15.6189 44.8053C18.6536 48.1892 22.7193 50.4783 27.1864 51.318C31.6536 52.1578 36.2729 51.5014 40.3293 49.4506C44.3857 47.3997 47.6529 44.0688 49.6249 39.9735C51.597 35.8782 52.1639 31.247 51.2379 26.7969C51.0338 25.8075 49.83 25.5104 49.117 26.2234M45.955 18.4993C46.1854 18.2761 46.3192 17.9717 46.3279 17.6511C46.3366 17.3305 46.2194 17.0192 46.0015 16.7839C42.8902 13.4976 38.7862 11.3234 34.3197 10.5951C29.8532 9.86686 25.2711 10.6248 21.277 12.7525C17.2829 14.8802 14.0977 18.2602 12.2103 22.3733C10.3229 26.4864 9.83778 31.1053 10.8294 35.5208C11.0464 36.4973 12.2399 36.7841 12.9477 36.0763C13.2836 35.7404 13.4127 35.2496 13.3146 34.7846C12.4911 30.9413 12.9423 26.9344 14.5998 23.3704C16.2573 19.8065 19.0308 16.8796 22.5005 15.0329C25.9702 13.1863 29.9471 12.5204 33.8291 13.136C37.7111 13.7517 41.2868 15.6154 44.0149 18.445C44.1384 18.576 44.2866 18.6812 44.4509 18.7549C44.6152 18.8285 44.7924 18.8689 44.9724 18.874C45.1524 18.879 45.3315 18.8485 45.4997 18.7842C45.6679 18.7199 45.8243 18.6231 45.955 18.4993Z" fill="white"/>
<path fill-rule="evenodd" clip-rule="evenodd" d="M46.8232 12.9167C47.1658 12.9167 47.4944 13.0528 47.7366 13.295C47.9788 13.5372 48.1149 13.8658 48.1149 14.2084V19.375C48.1149 19.7176 47.9788 20.0461 47.7366 20.2884C47.4944 20.5306 47.1658 20.6667 46.8232 20.6667H41.6566C41.314 20.6667 40.9855 20.5306 40.7432 20.2884C40.501 20.0461 40.3649 19.7176 40.3649 19.375C40.3649 19.0324 40.501 18.7039 40.7432 18.4617C40.9855 18.2194 41.314 18.0834 41.6566 18.0834H45.5316V14.2084C45.5316 13.8658 45.6677 13.5372 45.9099 13.295C46.1521 13.0528 46.4807 12.9167 46.8232 12.9167ZM14.2629 41.7131C14.3829 41.5928 14.5254 41.4973 14.6823 41.4321C14.8393 41.367 15.0075 41.3334 15.1774 41.3334H20.3441C20.6866 41.3334 21.0152 41.4694 21.2574 41.7117C21.4997 41.9539 21.6357 42.2825 21.6357 42.625C21.6357 42.9676 21.4997 43.2961 21.2574 43.5384C21.0152 43.7806 20.6866 43.9167 20.3441 43.9167H16.4691V47.7917C16.4691 48.1343 16.333 48.4628 16.0908 48.705C15.8485 48.9473 15.52 49.0834 15.1774 49.0834C14.8348 49.0834 14.5063 48.9473 14.2641 48.705C14.0218 48.4628 13.8857 48.1343 13.8857 47.7917V42.625C13.8854 42.4553 13.9186 42.2872 13.9833 42.1302C14.048 41.9733 14.143 41.8333 14.2629 41.7131Z" fill="white"/>
<path d="M31.5789 31.8628V36.8771C33.289 36.6859 34.5187 35.6965 34.5187 34.2782C34.5187 32.8367 33.1625 32.2994 31.6357 31.8757L31.5789 31.8628ZM27.877 27.5254C27.877 28.9592 29.3495 29.5533 30.4215 29.8556V25.1642C28.8664 25.3709 27.877 26.3009 27.877 27.5254Z" fill="white"/>
<path fill-rule="evenodd" clip-rule="evenodd" d="M30.9997 43.9166C34.4254 43.9166 37.7108 42.5558 40.1331 40.1334C42.5555 37.7111 43.9163 34.4257 43.9163 31C43.9163 27.5743 42.5555 24.2889 40.1331 21.8665C37.7108 19.4442 34.4254 18.0833 30.9997 18.0833C27.574 18.0833 24.2886 19.4442 21.8662 21.8665C19.4439 24.2889 18.083 27.5743 18.083 31C18.083 34.4257 19.4439 37.7111 21.8662 40.1334C24.2886 42.5558 27.574 43.9166 30.9997 43.9166ZM31.5783 40.0416H30.421V38.4658C27.6439 38.285 25.9493 36.7298 25.7865 34.503H27.5948C27.724 35.9574 28.9382 36.7221 30.421 36.8771V31.5296L29.8553 31.3668C27.5948 30.7184 26.1818 29.5585 26.1818 27.6106C26.1818 25.389 27.9978 23.8519 30.4184 23.6065V21.9583H31.5809V23.5832C34.1384 23.7537 35.9468 25.3218 36.0139 27.3833H34.3193C34.1643 26.0968 33.0767 25.2908 31.5809 25.1436V30.1656L32.1441 30.3206C33.6424 30.7184 36.2128 31.5941 36.2128 34.3066C36.2128 36.5102 34.5466 38.2617 31.5783 38.4658V40.0416Z" fill="white"/>
</svg>
