<svg width="60" height="42" viewBox="0 0 60 42" fill="none" xmlns="http://www.w3.org/2000/svg">
<path d="M60 3.75V41.25H3.75V33.75H0V0H52.5V3.75H60ZM45 3.75C45 4.27734 45.0977 4.76563 45.293 5.21484C45.4883 5.66406 45.752 6.05469 46.084 6.38672C46.416 6.71875 46.8164 6.99219 47.2852 7.20703C47.7539 7.42188 48.2422 7.51953 48.75 7.5V3.75H45ZM3.75 7.5C4.27734 7.5 4.76563 7.40234 5.21484 7.20703C5.66406 7.01172 6.05469 6.74805 6.38672 6.41602C6.71875 6.08398 6.99219 5.68359 7.20703 5.21484C7.42188 4.74609 7.51953 4.25781 7.5 3.75H3.75V7.5ZM3.75 22.5C4.78516 22.5 5.75195 22.6953 6.65039 23.0859C7.54883 23.4766 8.34961 24.0137 9.05273 24.6973C9.75586 25.3809 10.293 26.1719 10.6641 27.0703C11.0352 27.9687 11.2305 28.9453 11.25 30H41.25C41.25 28.9648 41.4453 27.998 41.8359 27.0996C42.2266 26.2012 42.7637 25.4004 43.4473 24.6973C44.1309 23.9941 44.9219 23.457 45.8203 23.0859C46.7187 22.7148 47.6953 22.5195 48.75 22.5V11.25C47.7148 11.25 46.748 11.0547 45.8496 10.6641C44.9512 10.2734 44.1504 9.73633 43.4473 9.05273C42.7441 8.36914 42.207 7.57812 41.8359 6.67969C41.4648 5.78125 41.2695 4.80469 41.25 3.75H11.25C11.25 4.78516 11.0547 5.75195 10.6641 6.65039C10.2734 7.54883 9.73633 8.34961 9.05273 9.05273C8.36914 9.75586 7.57812 10.293 6.67969 10.6641C5.78125 11.0352 4.80469 11.2305 3.75 11.25V22.5ZM48.75 26.25C48.2227 26.25 47.7344 26.3477 47.2852 26.543C46.8359 26.7383 46.4453 27.002 46.1133 27.334C45.7813 27.666 45.5078 28.0664 45.293 28.5352C45.0781 29.0039 44.9805 29.4922 45 30H48.75V26.25ZM3.75 30H7.5C7.5 29.4727 7.40234 28.9844 7.20703 28.5352C7.01172 28.0859 6.74805 27.6953 6.41602 27.3633C6.08398 27.0313 5.68359 26.7578 5.21484 26.543C4.74609 26.3281 4.25781 26.2305 3.75 26.25V30ZM56.25 7.5H52.5V33.75H7.5V37.5H56.25V7.5ZM13.125 18.75C12.6172 18.75 12.1777 18.5645 11.8066 18.1934C11.4355 17.8223 11.25 17.3828 11.25 16.875C11.25 16.3672 11.4355 15.9277 11.8066 15.5566C12.1777 15.1855 12.6172 15 13.125 15C13.6328 15 14.0723 15.1855 14.4434 15.5566C14.8145 15.9277 15 16.3672 15 16.875C15 17.3828 14.8145 17.8223 14.4434 18.1934C14.0723 18.5645 13.6328 18.75 13.125 18.75ZM39.375 18.75C38.8672 18.75 38.4277 18.5645 38.0566 18.1934C37.6855 17.8223 37.5 17.3828 37.5 16.875C37.5 16.3672 37.6855 15.9277 38.0566 15.5566C38.4277 15.1855 38.8672 15 39.375 15C39.8828 15 40.3223 15.1855 40.6934 15.5566C41.0645 15.9277 41.25 16.3672 41.25 16.875C41.25 17.3828 41.0645 17.8223 40.6934 18.1934C40.3223 18.5645 39.8828 18.75 39.375 18.75ZM26.25 26.25C25.2148 26.25 24.248 26.0547 23.3496 25.6641C22.4512 25.2734 21.6504 24.7363 20.9473 24.0527C20.2441 23.3691 19.707 22.5781 19.3359 21.6797C18.9648 20.7813 18.7695 19.8047 18.75 18.75V15C18.75 13.9648 18.9453 12.998 19.3359 12.0996C19.7266 11.2012 20.2637 10.4004 20.9473 9.69727C21.6309 8.99414 22.4219 8.45703 23.3203 8.08594C24.2187 7.71484 25.1953 7.51953 26.25 7.5C27.2852 7.5 28.252 7.69531 29.1504 8.08594C30.0488 8.47656 30.8496 9.01367 31.5527 9.69727C32.2559 10.3809 32.793 11.1719 33.1641 12.0703C33.5352 12.9687 33.7305 13.9453 33.75 15V18.75C33.75 19.7852 33.5547 20.752 33.1641 21.6504C32.7734 22.5488 32.2363 23.3496 31.5527 24.0527C30.8691 24.7559 30.0781 25.293 29.1797 25.6641C28.2813 26.0352 27.3047 26.2305 26.25 26.25ZM22.5 18.75C22.5 19.2773 22.5977 19.7656 22.793 20.2148C22.9883 20.6641 23.252 21.0547 23.584 21.3867C23.916 21.7187 24.3164 21.9922 24.7852 22.207C25.2539 22.4219 25.7422 22.5195 26.25 22.5C26.7773 22.5 27.2656 22.4023 27.7148 22.207C28.1641 22.0117 28.5547 21.748 28.8867 21.416C29.2187 21.084 29.4922 20.6836 29.707 20.2148C29.9219 19.7461 30.0195 19.2578 30 18.75V15C30 14.4727 29.9023 13.9844 29.707 13.5352C29.5117 13.0859 29.248 12.6953 28.916 12.3633C28.584 12.0313 28.1836 11.7578 27.7148 11.543C27.2461 11.3281 26.7578 11.2305 26.25 11.25C25.7227 11.25 25.2344 11.3477 24.7852 11.543C24.3359 11.7383 23.9453 12.002 23.6133 12.334C23.2813 12.666 23.0078 13.0664 22.793 13.5352C22.5781 14.0039 22.4805 14.4922 22.5 15V18.75Z" fill="white"/>
</svg>
